<svg xmlns="http://www.w3.org/2000/svg" xmlns:xlink="http://www.w3.org/1999/xlink" width="1971.275" height="532" viewBox="0 0 1971.275 532"><defs><clipPath id="a"><path d="M0,0H263.21V532H0Z" transform="translate(789.616 120)" fill="#ffe3cd"/></clipPath><clipPath id="b"><path d="M0,0H256.639V532H0Z" transform="translate(793.156 120)" fill="#ffe3cd"/></clipPath><clipPath id="c"><path d="M0,0H270.1V532H0Z" transform="translate(788.083 120)" fill="#ffe3cd"/></clipPath><clipPath id="d"><rect width="772" height="532" transform="translate(744 120)" fill="#fff" stroke="#707070" stroke-width="1"/></clipPath><clipPath id="e"><rect width="853.647" height="1101.873" fill="rgba(0,0,0,0)"/></clipPath><clipPath id="f"><rect width="175" height="166" transform="translate(0 2.028)" fill="#fff" stroke="#707070" stroke-width="1"/></clipPath><clipPath id="g"><rect width="944" height="532" transform="translate(652 120)" fill="#fff" stroke="#707070" stroke-width="1"/></clipPath><clipPath id="i"><rect width="249.529" height="239.327" fill="#ff8182"/></clipPath></defs><g transform="translate(-9088.52 -120)"><path d="M247.444,40.416l-45.228.112L74.511,40.384s-26.356.876-35.107-1.729c-5.862-1.737-18.583-10.859-28.341-18.3-4.455-3.394-1.892-10.118,3.858-10.134l45.228-.112,127.706.143s26.356-.884,35.107,1.729c5.853,1.737,18.583,10.867,28.341,18.308,4.455,3.394,1.892,10.11-3.858,10.126" transform="translate(9693.297 231.695)" fill="#00194d"/><path d="M149.1,26.467l-28.26.083-79.792-.111s-16.464.653-21.938-1.264c-3.654-1.264-11.6-7.933-17.7-13.366C-1.367,9.322.231,4.4,3.816,4.4l28.26-.083,79.792.1s16.464-.639,21.938,1.264c3.654,1.278,11.615,7.947,17.715,13.38,2.779,2.487,1.167,7.392-2.418,7.405" transform="translate(9238.521 579.007)" fill="#00194d"/><path d="M104.3,19.81l-19.768.058-55.815-.078s-11.517.457-15.346-.884C10.814,18.022,5.254,13.357.988,9.557c-1.944-1.74-.826-5.18,1.681-5.18l19.768-.058,55.815.068S89.769,3.94,93.6,5.271c2.556.894,8.125,5.559,12.391,9.359,1.944,1.74.816,5.17-1.691,5.18" transform="translate(9254.034 206.929)" fill="#1473E6"/><path d="M277.247,44.2l-50.876.125L82.717,44.165s-29.647.986-39.491-1.945c-6.594-1.954-20.9-12.215-31.88-20.586-5.011-3.818-2.128-11.382,4.34-11.4l50.876-.125,143.654.161s29.647-.995,39.491,1.945c6.584,1.954,20.9,12.224,31.88,20.595,5.011,3.818,2.128,11.373-4.34,11.391" transform="translate(10685.867 529.097)" fill="#fff"/><g transform="translate(9708)" clip-path="url(#a)"><path d="M1,1V1127H1129.681V1H1M0,0H1130.681V1128H0Z" transform="translate(1254.234 -326.734) rotate(25)" fill="#e7f1fb"/></g><g transform="translate(10010)" clip-path="url(#b)"><path d="M1,1V1127H1129.681V1H1M0,0H1130.681V1128H0Z" transform="translate(1254.234 -326.734) rotate(25)" fill="#e7f1fb"/></g><g transform="translate(9224)" clip-path="url(#c)"><path d="M1,1V1127H1129.681V1H1M0,0H1130.681V1128H0Z" transform="translate(1254.234 -326.734) rotate(25)" fill="#e7f1fb"/></g><g transform="translate(9448)" clip-path="url(#d)"><g transform="translate(658.969 99.695)"><g clip-path="url(#e)"><path d="M530.393,226.459H498.829v-5.531c8.642.176,14.141-1.687,10.287-9.286-5.831-11.457,19.45-10.85,23.176-8.375,6.6,4.383,2.261,17.066-1.9,23.193m-43.177,7.669h38.277c-4.239,6.422-16.176,28.125-23.87,28.158-3.11-4.325-13.3-18.375-14.407-28.158M611.56,188.071a22.689,22.689,0,0,1-6.307,2.179c-12.052,17.046-4.789,15.047-26.02,29.282.045,28.56.862,31.629,7.563,56.931a2.136,2.136,0,0,1-.259,1.728,2.113,2.113,0,0,1-1.416,1.005c-5.129,1.1-12.52,3-16.791,3.8.135.9,2.167,17.074-.123,29.114-3.595,18.9-48.589,60.272-59.328,62.389-14.867,2.93-31.474-10.2-57.448-21.6-7.161-3.143-31.178-18.933-43.751-23.127-10.431-3.476-20.891,21.912-7.936,28.728,6.036,3.168,15.655,7.435,18.7,15.31,9.007,23.353-1.42,113.407-19.984,131.516-8.814-.07-16.229-8.158-22.77-6.04-11.687,6.393.111,48.618,4.4,54.835H108.012c3.065-1.584,6.57-.176,9.294-1.859,0-15.889-15.79-104.269-3.8-108.742,7.4-2.758,24.4-4.218,27.67-5.691-.2-3.771-2.778-11.81-5.9-12.245-5.269-.734-16.086-2.778-24.686-4.76-26.406-6.085-1.97-110.252-1.645-110.674,7.267-9.6,40.985,3.348,45.076-13.016,11.276-14.383-8.691-69.73,29.779-137.864,12.987-23.012,37.871-46.254,66.886-36.4,9.725,3.3,3.82,17.28,20.911,2.323.427-8.716-3.623-16.024-6.044-23.234C237.131,17.207,333.394-28.723,400.777,19.71c7.583,3.061,11.986,4.579,17.661,8.827,3.714,19.188,22.733,53.333,3.714,75.746a70.318,70.318,0,0,0-23.23,10.222,67.99,67.99,0,0,0,2.318,19.516c1.28,4.165,3.705,5.815-2.561,8.363-.78.32-.447,2.918-.016,3.894,15.72,3.094,32.5-2.909,43.008-7.144h12.561V123.314h5.991v-12.4h6v21.424h15.659v6.791h232.3v12.06h10.275V107.056h8.638v35.893h19.775v20.493h61.494v-6.1h10.234v2.684h29.052V177.11H824.595v2.68H814.361v-6.1H752.866v6.1H725.779v-4.132h-11.6v12.409Z" transform="translate(-0.001 0.003)" fill="#031a4a" fill-rule="evenodd"/><path d="M340.83-.5a100.369,100.369,0,0,1,30.56,4.8,106.127,106.127,0,0,1,29.63,14.969c.805.325,1.572.631,2.314.928,6.2,2.478,10.294,4.116,15.4,7.939l.155.116.037.19A146.137,146.137,0,0,0,423.363,44c3.056,9.5,6.52,20.265,7.4,30.842,1.023,12.3-1.669,22.032-8.229,29.762l-.11.13-.167.036a63.646,63.646,0,0,0-12.213,4.125,65.418,65.418,0,0,0-10.624,5.869,67.6,67.6,0,0,0,2.3,19.108c.241.784.53,1.492.785,2.117.579,1.418,1.079,2.643.582,3.822-.469,1.113-1.727,2.02-4.206,3.029a2.316,2.316,0,0,0-.155,1.345,7.223,7.223,0,0,0,.306,1.652,47.087,47.087,0,0,0,8.756.791c12.351,0,24.5-4.254,33.7-7.961l.09-.036h12.158V122.814h5.991v-12.4h7v21.424h15.659v6.791h232.3v12.06h9.275V106.556h9.638v35.893h19.775v20.493h60.495v-6.1h11.234v2.684h29.053V177.61H825.095v2.68H813.861v-6.1H753.366v6.1H725.279v-4.132h-10.6v12.409h-103a23.222,23.222,0,0,1-6.133,2.132A100.327,100.327,0,0,0,598.577,202c-3.18,5.874-4.379,8.091-18.844,17.8.024,13.845.225,21.794,1.279,29.341,1.042,7.467,2.894,14.462,6.257,27.159l.01.036a2.644,2.644,0,0,1-.317,2.12,2.594,2.594,0,0,1-1.739,1.231c-2.136.46-4.717,1.069-7.213,1.659-3.275.773-6.654,1.572-9.122,2.054.174,1.391.591,5.253.79,9.956A87.881,87.881,0,0,1,568.7,312.2c-.856,4.5-4.007,10.433-9.367,17.631a186.647,186.647,0,0,1-17.757,20.12,213.191,213.191,0,0,1-19.095,16.957c-4.29,3.317-10.116,7.41-13.5,8.078a23.078,23.078,0,0,1-4.451.425c-9.314,0-19.395-5.192-32.159-11.765-6.24-3.214-13.313-6.856-21.137-10.29-2.635-1.157-7.542-4.016-13.223-7.326-10.043-5.852-22.543-13.135-30.486-15.785a5.764,5.764,0,0,0-1.824-.3,6.788,6.788,0,0,0-3.4.984,12.166,12.166,0,0,0-3.139,2.708,21.715,21.715,0,0,0-4.307,8.714,18.051,18.051,0,0,0-.1,9.084,10.27,10.27,0,0,0,5.22,6.621c.575.3,1.178.611,1.817.939,6.032,3.1,14.294,7.334,17.112,14.634,2.174,5.636,3.322,15.331,3.321,28.035a305.019,305.019,0,0,1-2.945,39.938,259.068,259.068,0,0,1-8.127,38.964,106.574,106.574,0,0,1-5.691,15.084,35.859,35.859,0,0,1-6.659,10.033l-.147.144-.206,0c-4.25-.034-8.067-1.829-11.758-3.565-3.094-1.455-6.015-2.829-8.7-2.829a6.891,6.891,0,0,0-2.107.315c-1.881,1.049-3.219,3.2-3.978,6.4-1.917,8.078.291,20.49,1.778,27.169,2.188,9.833,5.184,18.154,6.816,20.518l.541.784H108.012l-.229-.944a11.043,11.043,0,0,1,4.9-.945,9.234,9.234,0,0,0,4.122-.757c-.051-4.594-1.266-14.5-2.8-26.961-1.94-15.811-4.355-35.489-5.193-51.484a128.192,128.192,0,0,1,.172-20.465c.685-5.9,2.106-9.177,4.344-10.012,4.214-1.57,11.3-2.692,17.56-3.683a77.626,77.626,0,0,0,9.761-1.869,25.083,25.083,0,0,0-1.791-6.852c-1.146-2.74-2.48-4.405-3.659-4.569-4.917-.686-15.77-2.7-24.73-4.768a10.956,10.956,0,0,1-5.76-3.5,20.549,20.549,0,0,1-3.8-6.789c-2.27-6.315-3.293-15.543-3.043-27.428a283.883,283.883,0,0,1,3-33.307c1.62-11.391,3.559-21.624,4.9-28.2.812-3.984,1.469-6.95,1.877-8.736.277-1.211.463-1.987.571-2.424.235-.953.254-.978.326-1.073,1.319-1.742,3.525-2.9,6.743-3.536a53.665,53.665,0,0,1,9.867-.681c1.2,0,2.437.013,3.637.025,1.222.013,2.485.026,3.724.026,4.723,0,9.632-.171,13.544-1.414a12.449,12.449,0,0,0,4.786-2.615,9.091,9.091,0,0,0,2.688-4.638l.026-.1.066-.084c3.862-4.926,3.961-14.965,4.1-28.86.254-25.751.639-64.666,25.638-108.941a102.031,102.031,0,0,1,9.7-14.255A84.272,84.272,0,0,1,205.5,132.29a59.737,59.737,0,0,1,14.761-8.866,44.049,44.049,0,0,1,16.672-3.377,43.21,43.21,0,0,1,13.911,2.351c3.613,1.227,5.175,3.859,6.43,5.973,1.069,1.8,1.841,3.1,3.425,3.1,2,0,5.309-2.072,10.406-6.516.261-6.426-1.943-12.1-4.076-17.58-.672-1.727-1.366-3.514-1.952-5.258-4.59-13.691-6.116-26.889-4.535-39.23A69.214,69.214,0,0,1,264.814,46.2a67.177,67.177,0,0,1,7.918-14.467,71.014,71.014,0,0,1,12.942-13.655,79.152,79.152,0,0,1,16.219-10.12,88.15,88.15,0,0,1,18.662-6.289A95.352,95.352,0,0,1,340.83-.5Zm77.155,29.321c-4.934-3.663-8.959-5.273-15.022-7.7-.76-.3-1.546-.618-2.373-.952l-.056-.022-.049-.035a105.134,105.134,0,0,0-29.4-14.864A99.375,99.375,0,0,0,340.83.5a94.347,94.347,0,0,0-20.061,2.14,87.141,87.141,0,0,0-18.45,6.217A78.156,78.156,0,0,0,286.3,18.849a70.017,70.017,0,0,0-12.76,13.463,66.177,66.177,0,0,0-7.8,14.251,68.216,68.216,0,0,0-4.213,16.452c-1.562,12.19-.051,25.239,4.491,38.785.578,1.722,1.238,3.418,1.936,5.214,2.194,5.642,4.463,11.477,4.133,18.2l-.01.212-.16.14a53.089,53.089,0,0,1-6.912,5.323,8.812,8.812,0,0,1-4.313,1.581c-2.152,0-3.188-1.745-4.285-3.592-1.232-2.076-2.629-4.429-5.892-5.537a42.212,42.212,0,0,0-13.589-2.3,43.055,43.055,0,0,0-16.294,3.3,58.741,58.741,0,0,0-14.512,8.72A83.284,83.284,0,0,0,193.839,145.4a101.037,101.037,0,0,0-9.609,14.115c-24.873,44.052-25.255,82.812-25.509,108.46-.138,14.016-.239,24.164-4.246,29.383-1,3.872-3.658,6.444-8.115,7.86-4.042,1.284-9.043,1.461-13.846,1.461-1.244,0-2.51-.013-3.734-.026-1.2-.012-2.436-.025-3.627-.025a52.81,52.81,0,0,0-9.673.662c-2.927.58-4.922,1.594-6.094,3.1-.373,1.277-4.993,20.834-8.033,43.714a249.786,249.786,0,0,0-2.516,34.284c.107,11.8,1.649,20.485,4.584,25.823a14.313,14.313,0,0,0,3.159,4.028,9.619,9.619,0,0,0,4.119,2.1c8.933,2.059,19.747,4.069,24.643,4.752,2,.278,3.52,2.967,4.443,5.173a25.406,25.406,0,0,1,1.892,7.54l.018.341-.312.141c-1.489.671-5.392,1.289-10.334,2.072-5.9.935-13.247,2.1-17.367,3.632a4.617,4.617,0,0,0-2.3,2.833,25.536,25.536,0,0,0-1.4,6.357,129.126,129.126,0,0,0-.167,20.3c.835,15.961,3.248,35.619,5.187,51.415,1.567,12.766,2.8,22.849,2.805,27.37v.279l-.237.146a7,7,0,0,1-3,.934H379.2a46.081,46.081,0,0,1-2.88-7.023,130.668,130.668,0,0,1-3.609-13.062c-1.505-6.763-3.737-19.344-1.774-27.617.833-3.51,2.351-5.89,4.512-7.072l.041-.022.045-.014a7.975,7.975,0,0,1,2.46-.378c2.91,0,5.93,1.42,9.128,2.924,3.532,1.661,7.183,3.378,11.134,3.466a35.443,35.443,0,0,0,6.31-9.606,105.571,105.571,0,0,0,5.635-14.941,258.062,258.062,0,0,0,8.093-38.809,304,304,0,0,0,2.936-39.8c0-12.582-1.124-22.152-3.254-27.675-2.681-6.943-10.747-11.082-16.636-14.1-.641-.329-1.246-.639-1.826-.944a11.124,11.124,0,0,1-3.7-3.1,12.124,12.124,0,0,1-2.022-4.142,19.045,19.045,0,0,1,.09-9.592A22.731,22.731,0,0,1,398.4,333a13.153,13.153,0,0,1,3.4-2.927,7.772,7.772,0,0,1,3.9-1.118,6.761,6.761,0,0,1,2.14.351c8.041,2.682,20.59,9.994,30.673,15.87,5.655,3.295,10.538,6.14,13.121,7.274,7.852,3.446,14.94,7.1,21.193,10.316,12.643,6.511,22.63,11.654,31.7,11.654a22.066,22.066,0,0,0,4.257-.406c2.494-.492,7.141-3.293,13.086-7.888a212.155,212.155,0,0,0,19-16.875,185.635,185.635,0,0,0,17.66-20.008,79.205,79.205,0,0,0,6.1-9.344,28.384,28.384,0,0,0,3.089-7.877,82.6,82.6,0,0,0,.963-18.62c-.229-5.427-.75-9.708-.843-10.326l-.072-.477.474-.089c2.474-.463,6.067-1.312,9.542-2.133,2.5-.591,5.087-1.2,7.236-1.664a1.613,1.613,0,0,0,1.1-.778,1.646,1.646,0,0,0,.2-1.338l-.009-.036c-3.373-12.735-5.231-19.751-6.281-27.277-1.068-7.654-1.266-15.69-1.289-29.745v-.267l.222-.149c7.192-4.822,11.146-7.8,13.649-10.285a26.761,26.761,0,0,0,5.094-7.312,101.408,101.408,0,0,1,7.146-11.558l.117-.165.2-.038a22.055,22.055,0,0,0,6.175-2.134l.106-.053H713.679V175.162h12.6v4.132h26.087v-6.1h62.495v6.1h9.234v-2.68h29.053V160.528H824.095v-2.684h-9.234v6.1H752.366V143.449H732.592V107.556h-7.638v44.137H713.679v-12.06h-232.3v-6.791H465.723V111.417h-5v12.4h-5.991v15.819H441.769c-9.274,3.732-21.5,8-33.982,8a47.9,47.9,0,0,1-9.22-.862l-.256-.05-.105-.238a6.516,6.516,0,0,1-.31-3.907,1.1,1.1,0,0,1,.594-.651c2.16-.878,3.327-1.671,3.674-2.5.336-.8-.051-1.745-.586-3.056-.263-.644-.561-1.374-.815-2.2a68.908,68.908,0,0,1-2.341-19.669l0-.254.207-.147a70.811,70.811,0,0,1,23.247-10.267c6.3-7.5,8.88-16.954,7.886-28.9-.87-10.463-4.315-21.171-7.355-30.618A149.762,149.762,0,0,1,417.985,28.822ZM523,201.29c4.254,0,8.19.641,9.572,1.559a7.981,7.981,0,0,1,3.381,5.358c.663,3.37-.171,7.175-.987,9.774a34.759,34.759,0,0,1-4.157,8.758l-.149.219H498.329v-6.542l.51.01c.36.007.714.011,1.054.011,5.272,0,8.378-.884,9.494-2.7.821-1.337.58-3.312-.717-5.87-1.157-2.273-1.229-4.264-.214-5.919,1-1.625,3.008-2.857,5.978-3.66A34.148,34.148,0,0,1,523,201.29Zm7.129,24.668a33.951,33.951,0,0,0,3.883-8.276,19.518,19.518,0,0,0,.96-9.282,7.017,7.017,0,0,0-2.953-4.718c-1.042-.692-4.474-1.392-9.019-1.392a33.153,33.153,0,0,0-8.3.962c-2.677.725-4.54,1.837-5.386,3.218-.821,1.338-.735,3,.253,4.944a11.3,11.3,0,0,1,1.276,3.9,4.652,4.652,0,0,1-.6,2.949,6.23,6.23,0,0,1-3.941,2.516,25.07,25.07,0,0,1-6.4.662c-.184,0-.373,0-.564,0v4.523Zm-43.47,7.669h39.766l-.512.775c-.672,1.018-1.546,2.434-2.558,4.075a175,175,0,0,1-10.272,15.334c-4.7,6.026-8.451,8.961-11.455,8.974h-.258l-.279-.388c-3.28-4.559-13.262-18.433-14.369-28.215Zm37.917,1H487.786c1.38,9.465,10.881,22.691,14.088,27.148,2.614-.186,6.118-3.07,10.419-8.58A174.222,174.222,0,0,0,522.5,237.953C523.283,236.686,523.983,235.553,524.574,234.628Z" transform="translate(-0.001 0.003)" fill="#e7f1fb"/></g></g></g><path d="M163.919,21.73l-27.714.078-78.27-.1s-16.151.638-21.514-1.233C32.834,19.22,25.03,12.684,19.054,7.347,16.321,4.915,17.9.095,21.417.086L49.131,0,127.4.112s16.151-.638,21.514,1.233c3.587,1.25,11.391,7.786,17.367,13.124,2.734,2.432,1.155,7.252-2.363,7.26" transform="translate(9070.853 453.417)" fill="#fff"/><g transform="translate(10174 117.972)"><g clip-path="url(#f)"><path d="M171.991,81.014H151.708A64.448,64.448,0,0,0,90.225,19.531V2.82a2.82,2.82,0,0,0-5.639,0V19.531A64.448,64.448,0,0,0,23.1,81.014H2.82a2.82,2.82,0,1,0,0,5.639H23.1a64.447,64.447,0,0,0,61.483,61.48v16.711a2.82,2.82,0,1,0,5.639,0V148.132a64.447,64.447,0,0,0,61.483-61.48h20.284a2.82,2.82,0,1,0,0-5.639M90.225,142.423V119.571a2.82,2.82,0,0,0-5.639,0v22.852a58.713,58.713,0,0,1-55.77-55.77H48.093a2.82,2.82,0,1,0,0-5.639H28.816A58.714,58.714,0,0,1,84.586,25.24V48.09a2.82,2.82,0,0,0,5.639,0V25.24A58.714,58.714,0,0,1,146,81.014H126.718a2.82,2.82,0,0,0,0,5.639H146a58.713,58.713,0,0,1-55.77,55.77" transform="translate(0 0)" fill="#ff8182"/><path d="M45.252,21.9A22.087,22.087,0,1,0,67.338,43.984,22.086,22.086,0,0,0,45.252,21.9" transform="translate(42.153 39.846)" fill="#ff8182"/></g></g><g transform="translate(9050)" clip-path="url(#g)"><g transform="translate(658.969 99.695)"><g clip-path="url(#e)"><path d="M530.393,226.459H498.829v-5.531c8.642.176,14.141-1.687,10.287-9.286-5.831-11.457,19.45-10.85,23.176-8.375,6.6,4.383,2.261,17.066-1.9,23.193m-43.177,7.669h38.277c-4.239,6.422-16.176,28.125-23.87,28.158-3.11-4.325-13.3-18.375-14.407-28.158M611.56,188.071a22.689,22.689,0,0,1-6.307,2.179c-12.052,17.046-4.789,15.047-26.02,29.282.045,28.56.862,31.629,7.563,56.931a2.136,2.136,0,0,1-.259,1.728,2.113,2.113,0,0,1-1.416,1.005c-5.129,1.1-12.52,3-16.791,3.8.135.9,2.167,17.074-.123,29.114-3.595,18.9-48.589,60.272-59.328,62.389-14.867,2.93-31.474-10.2-57.448-21.6-7.161-3.143-31.178-18.933-43.751-23.127-10.431-3.476-20.891,21.912-7.936,28.728,6.036,3.168,15.655,7.435,18.7,15.31,9.007,23.353-1.42,113.407-19.984,131.516-8.814-.07-16.229-8.158-22.77-6.04-11.687,6.393-4.292,48.618,0,54.835,1.582,1.627-267.673,0-267.673,0,3.065-1.584,6.57-.176,9.294-1.859,0-15.889-15.79-104.269-3.8-108.742,7.4-2.758,24.4-4.218,27.67-5.691-.2-3.771-2.778-11.81-5.9-12.245-5.269-.734-16.086-2.778-24.686-4.76-26.406-6.085-1.97-110.252-1.645-110.674,7.267-9.6,40.985,3.348,45.076-13.016,11.276-14.383-8.691-69.73,29.779-137.864,12.987-23.012,37.871-46.254,66.886-36.4,9.725,3.3,3.82,17.28,20.911,2.323.427-8.716-3.623-16.024-6.044-23.234C237.131,17.207,333.394-28.723,400.777,19.71c7.583,3.061,11.986,4.579,17.661,8.827,3.714,19.188,22.733,53.333,3.714,75.746a70.318,70.318,0,0,0-23.23,10.222,67.99,67.99,0,0,0,2.318,19.516c1.28,4.165,3.705,5.815-2.561,8.363-.78.32-.447,2.918-.016,3.894,15.72,3.094,32.5-2.909,43.008-7.144h12.561V123.314h5.991v-12.4h6v21.424h15.659v6.791h232.3v12.06h10.275V107.056h8.638v35.893h19.775v20.493h61.494v-6.1h10.234v2.684h29.052V177.11H824.595v2.68H814.361v-6.1H752.866v6.1H725.779v-4.132h-11.6v12.409Z" transform="translate(-0.001 0.003)" fill="#fff" fill-rule="evenodd"/><path d="M340.83-.5a100.37,100.37,0,0,1,30.56,4.8,106.122,106.122,0,0,1,29.63,14.969c.805.325,1.572.631,2.314.928,6.2,2.478,10.294,4.115,15.4,7.939l.155.116.037.19A146.14,146.14,0,0,0,423.363,44c3.056,9.5,6.52,20.264,7.4,30.842,1.023,12.3-1.669,22.032-8.229,29.762l-.11.13-.167.036a63.641,63.641,0,0,0-12.213,4.125,65.411,65.411,0,0,0-10.624,5.869,67.6,67.6,0,0,0,2.3,19.108c.241.784.53,1.492.785,2.117.579,1.418,1.079,2.643.582,3.822-.469,1.113-1.727,2.02-4.206,3.029a2.316,2.316,0,0,0-.155,1.345,7.223,7.223,0,0,0,.306,1.652,47.087,47.087,0,0,0,8.756.791c12.35,0,24.5-4.255,33.7-7.961l.09-.036h12.158V122.814h5.991v-12.4h7v21.424h15.659v6.791h232.3v12.06h9.275V106.556h9.638v35.893h19.775v20.493h60.495v-6.1h11.234v2.684h29.053V177.61H825.095v2.68H813.861v-6.1H753.366v6.1H725.279v-4.132h-10.6v12.409h-103a23.223,23.223,0,0,1-6.133,2.132A100.327,100.327,0,0,0,598.577,202c-3.18,5.874-4.379,8.091-18.844,17.8.024,13.845.225,21.794,1.279,29.341,1.042,7.467,2.894,14.462,6.257,27.159l.01.036a2.644,2.644,0,0,1-.317,2.12,2.594,2.594,0,0,1-1.739,1.231c-2.135.459-4.715,1.069-7.21,1.658-3.276.774-6.656,1.572-9.125,2.054.174,1.391.591,5.253.79,9.956A87.881,87.881,0,0,1,568.7,312.2c-.856,4.5-4.007,10.433-9.367,17.631a186.647,186.647,0,0,1-17.757,20.12,213.174,213.174,0,0,1-19.095,16.957c-4.29,3.316-10.116,7.41-13.5,8.078a23.074,23.074,0,0,1-4.45.425c-9.314,0-19.395-5.192-32.159-11.765-6.24-3.214-13.313-6.856-21.137-10.29-2.635-1.157-7.541-4.015-13.222-7.326-10.044-5.852-22.543-13.136-30.487-15.785a5.761,5.761,0,0,0-1.824-.3,6.788,6.788,0,0,0-3.4.984,12.165,12.165,0,0,0-3.139,2.708,21.715,21.715,0,0,0-4.307,8.714,18.049,18.049,0,0,0-.1,9.084,10.27,10.27,0,0,0,5.22,6.621c.575.3,1.178.611,1.817.939,6.032,3.1,14.294,7.334,17.112,14.634,2.174,5.637,3.322,15.331,3.321,28.035a305.022,305.022,0,0,1-2.945,39.938,259.067,259.067,0,0,1-8.127,38.964,106.574,106.574,0,0,1-5.691,15.084,35.859,35.859,0,0,1-6.659,10.033l-.147.144-.206,0c-4.25-.034-8.067-1.829-11.758-3.565-3.094-1.455-6.016-2.829-8.7-2.829a6.891,6.891,0,0,0-2.107.315c-2.232,1.244-3.87,4.006-4.868,8.211a52.772,52.772,0,0,0-1.109,12.563,111.858,111.858,0,0,0,1.143,14.023c1.242,8.732,3.36,16.833,5.039,19.281a.517.517,0,0,1,.063.51c-.147.348-.48.4-1.84.486-.888.054-2.21.105-3.93.151-3.278.088-8.135.161-14.437.217-11.393.1-27.863.154-48.953.154-78.4,0-197.785-.716-198.982-.723l-.227-.944a11.043,11.043,0,0,1,4.9-.945,9.235,9.235,0,0,0,4.122-.757c-.051-4.594-1.266-14.5-2.8-26.961-1.94-15.811-4.355-35.489-5.193-51.484a128.192,128.192,0,0,1,.172-20.465c.685-5.9,2.106-9.177,4.344-10.012,4.214-1.57,11.3-2.692,17.559-3.683a77.6,77.6,0,0,0,9.762-1.869,25.084,25.084,0,0,0-1.791-6.852c-1.146-2.74-2.48-4.4-3.659-4.569-4.917-.685-15.77-2.7-24.73-4.768a10.956,10.956,0,0,1-5.76-3.5,20.545,20.545,0,0,1-3.8-6.788c-2.27-6.315-3.294-15.543-3.043-27.428a283.9,283.9,0,0,1,3-33.308c1.62-11.391,3.559-21.625,4.9-28.2.812-3.984,1.469-6.95,1.877-8.736.277-1.211.463-1.987.571-2.424.235-.953.254-.978.326-1.073,1.319-1.742,3.525-2.9,6.742-3.536a53.677,53.677,0,0,1,9.867-.681c1.2,0,2.437.013,3.637.025,1.222.013,2.485.026,3.724.026,4.723,0,9.632-.171,13.544-1.414a12.449,12.449,0,0,0,4.786-2.615,9.09,9.09,0,0,0,2.688-4.638l.026-.1.066-.084c3.862-4.926,3.961-14.965,4.1-28.86.254-25.751.639-64.666,25.638-108.941a102.035,102.035,0,0,1,9.7-14.255A84.275,84.275,0,0,1,205.5,132.29a59.734,59.734,0,0,1,14.761-8.866,44.051,44.051,0,0,1,16.672-3.377,43.215,43.215,0,0,1,13.911,2.351c3.613,1.227,5.175,3.859,6.43,5.973,1.069,1.8,1.841,3.1,3.425,3.1,2,0,5.309-2.072,10.406-6.516.261-6.426-1.943-12.1-4.076-17.58-.672-1.727-1.366-3.514-1.952-5.258-4.59-13.691-6.116-26.889-4.535-39.23A69.215,69.215,0,0,1,264.814,46.2a67.177,67.177,0,0,1,7.918-14.467,71.018,71.018,0,0,1,12.942-13.655,79.15,79.15,0,0,1,16.22-10.12,88.147,88.147,0,0,1,18.662-6.289A95.348,95.348,0,0,1,340.83-.5Zm77.155,29.321c-4.934-3.664-8.959-5.273-15.022-7.7-.76-.3-1.546-.618-2.373-.952l-.056-.022-.049-.035a105.135,105.135,0,0,0-29.4-14.864A99.375,99.375,0,0,0,340.83.5a94.351,94.351,0,0,0-20.061,2.14,87.148,87.148,0,0,0-18.45,6.217A78.159,78.159,0,0,0,286.3,18.849a70.017,70.017,0,0,0-12.76,13.463,66.177,66.177,0,0,0-7.8,14.252,68.216,68.216,0,0,0-4.213,16.452c-1.562,12.19-.051,25.239,4.491,38.785.578,1.722,1.238,3.418,1.936,5.214,2.194,5.642,4.463,11.477,4.133,18.2l-.01.212-.16.14a53.105,53.105,0,0,1-6.912,5.323,8.813,8.813,0,0,1-4.313,1.581c-2.152,0-3.188-1.745-4.285-3.592-1.232-2.076-2.629-4.429-5.892-5.537a42.218,42.218,0,0,0-13.589-2.3,43.058,43.058,0,0,0-16.294,3.3,58.743,58.743,0,0,0-14.512,8.72A83.272,83.272,0,0,0,193.839,145.4a101.024,101.024,0,0,0-9.609,14.115c-24.873,44.052-25.255,82.812-25.509,108.46-.138,14.016-.239,24.164-4.246,29.383-1,3.872-3.658,6.444-8.115,7.86-4.042,1.284-9.043,1.461-13.846,1.461-1.244,0-2.51-.013-3.735-.026-1.2-.012-2.436-.025-3.627-.025a52.81,52.81,0,0,0-9.673.662c-2.927.58-4.922,1.594-6.094,3.1-.373,1.277-4.993,20.834-8.033,43.714a249.787,249.787,0,0,0-2.516,34.284c.107,11.8,1.649,20.485,4.584,25.823a14.314,14.314,0,0,0,3.159,4.028,9.618,9.618,0,0,0,4.119,2.1c8.933,2.058,19.747,4.069,24.643,4.752,2,.278,3.52,2.967,4.443,5.173a25.406,25.406,0,0,1,1.892,7.54l.018.341-.312.141c-1.489.672-5.392,1.29-10.335,2.072-5.9.935-13.246,2.1-17.366,3.632a4.617,4.617,0,0,0-2.3,2.833,25.537,25.537,0,0,0-1.4,6.357,129.126,129.126,0,0,0-.167,20.3c.835,15.961,3.248,35.619,5.187,51.415,1.567,12.766,2.8,22.849,2.805,27.37v.279l-.237.146a7.385,7.385,0,0,1-3.381.969c25.537.146,124.651.687,192.8.687,20.532,0,36.693-.049,48.034-.146,13.73-.117,18.393-.291,19.867-.418-1.7-3.105-3.639-10.7-4.833-19.095a112.867,112.867,0,0,1-1.152-14.151,53.748,53.748,0,0,1,1.136-12.807c1.072-4.518,2.889-7.506,5.4-8.88l.041-.022.045-.014a7.867,7.867,0,0,1,2.46-.378c2.91,0,5.93,1.42,9.128,2.924,3.532,1.661,7.183,3.378,11.134,3.466a35.443,35.443,0,0,0,6.31-9.606,105.571,105.571,0,0,0,5.635-14.941,258.063,258.063,0,0,0,8.093-38.809,304,304,0,0,0,2.936-39.8c0-12.582-1.124-22.152-3.254-27.675-2.681-6.944-10.747-11.082-16.636-14.1-.641-.329-1.246-.639-1.825-.943a11.125,11.125,0,0,1-3.7-3.1,12.125,12.125,0,0,1-2.022-4.141,19.045,19.045,0,0,1,.09-9.592A22.731,22.731,0,0,1,398.4,333a13.155,13.155,0,0,1,3.4-2.927,7.771,7.771,0,0,1,3.9-1.118,6.762,6.762,0,0,1,2.14.351c8.041,2.682,20.59,9.994,30.674,15.87,5.654,3.295,10.537,6.14,13.12,7.274,7.852,3.446,14.94,7.1,21.193,10.316,12.643,6.511,22.63,11.654,31.7,11.654a22.068,22.068,0,0,0,4.257-.406c2.494-.492,7.141-3.293,13.086-7.888a212.175,212.175,0,0,0,19-16.875,185.635,185.635,0,0,0,17.66-20.008,79.2,79.2,0,0,0,6.1-9.344,28.383,28.383,0,0,0,3.089-7.877,82.6,82.6,0,0,0,.963-18.62c-.229-5.427-.75-9.708-.843-10.326l-.072-.477.474-.089c2.475-.464,6.069-1.312,9.545-2.134,2.5-.591,5.085-1.2,7.233-1.664a1.613,1.613,0,0,0,1.1-.779,1.646,1.646,0,0,0,.2-1.338l-.009-.036c-3.373-12.735-5.231-19.751-6.281-27.277-1.068-7.654-1.266-15.69-1.289-29.745v-.267l.222-.149c7.192-4.822,11.146-7.8,13.649-10.285a26.759,26.759,0,0,0,5.094-7.312,101.408,101.408,0,0,1,7.146-11.558l.117-.165.2-.038a22.057,22.057,0,0,0,6.175-2.134l.106-.053H713.679V175.162h12.6v4.132h26.087v-6.1h62.495v6.1h9.234v-2.68h29.053V160.528H824.095v-2.684h-9.234v6.1H752.366V143.449H732.592V107.556h-7.638v44.137H713.679v-12.06h-232.3v-6.791H465.723V111.417h-5v12.4h-5.991v15.819H441.769c-9.274,3.732-21.5,8-33.982,8a47.9,47.9,0,0,1-9.22-.862l-.256-.05-.105-.238a6.516,6.516,0,0,1-.31-3.907,1.1,1.1,0,0,1,.594-.651c2.16-.878,3.327-1.671,3.674-2.5.336-.8-.051-1.745-.586-3.056-.263-.644-.561-1.374-.815-2.2a68.909,68.909,0,0,1-2.341-19.67l0-.254.207-.147a70.814,70.814,0,0,1,23.247-10.267c6.3-7.5,8.88-16.954,7.886-28.9-.87-10.463-4.315-21.171-7.355-30.618A149.786,149.786,0,0,1,417.985,28.822ZM523,201.29c4.254,0,8.19.641,9.572,1.559a7.981,7.981,0,0,1,3.381,5.358c.663,3.37-.171,7.175-.987,9.774a34.758,34.758,0,0,1-4.157,8.758l-.149.219H498.329v-6.542l.51.01c.36.007.714.011,1.054.011,5.272,0,8.378-.884,9.494-2.7.821-1.337.58-3.312-.717-5.87-1.157-2.273-1.229-4.264-.214-5.919,1-1.625,3.008-2.857,5.978-3.66A34.15,34.15,0,0,1,523,201.29Zm7.129,24.668a33.952,33.952,0,0,0,3.883-8.276,19.518,19.518,0,0,0,.96-9.282,7.017,7.017,0,0,0-2.953-4.718c-1.042-.692-4.474-1.392-9.019-1.392a33.152,33.152,0,0,0-8.3.962c-2.677.725-4.54,1.837-5.386,3.218-.821,1.338-.735,3,.253,4.944a11.3,11.3,0,0,1,1.276,3.9,4.652,4.652,0,0,1-.6,2.949,6.23,6.23,0,0,1-3.941,2.516,25.07,25.07,0,0,1-6.4.662c-.184,0-.373,0-.564,0v4.523Zm-43.47,7.669h39.766l-.512.775c-.672,1.018-1.546,2.434-2.558,4.074a175,175,0,0,1-10.272,15.334c-4.7,6.026-8.452,8.961-11.455,8.974h-.258l-.279-.388c-3.28-4.559-13.262-18.433-14.369-28.215Zm37.917,1H487.786c1.38,9.465,10.881,22.691,14.088,27.148,2.614-.186,6.118-3.07,10.419-8.58A174.209,174.209,0,0,0,522.5,237.952C523.284,236.686,523.983,235.552,524.574,234.628Z" transform="translate(-0.001 0.003)" fill="#031a4a"/></g></g></g><path d="M227.54,38.121l-43.126.127-121.767-.17s-25.125,1-33.479-1.929c-5.576-1.929-17.7-12.107-27.012-20.4-4.241-3.8-1.8-11.3,3.668-11.3l43.126-.127,121.767.148S195.842,3.5,204.2,6.4c5.576,1.951,17.726,12.128,27.034,20.418,4.241,3.8,1.781,11.28-3.689,11.3" transform="translate(9747.521 542.685)" fill="#1473E6"/><path d="M104.3,19.81l-19.768.058-55.815-.078s-11.517.457-15.346-.884C10.814,18.022,5.254,13.357.988,9.557c-1.944-1.74-.826-5.18,1.681-5.18l19.768-.058,55.815.068S89.769,3.94,93.6,5.271c2.556.894,8.125,5.559,12.391,9.359,1.944,1.74.816,5.17-1.691,5.18" transform="translate(10821.179 199.152)" fill="#1473E6"/><g transform="translate(10400.502 355.113)"><g transform="translate(0 0)" clip-path="url(#i)"><path d="M245.5,115.641H216.551a91.994,91.994,0,0,0-87.762-87.762V4.025a4.025,4.025,0,0,0-8.049,0V27.879a91.994,91.994,0,0,0-87.762,87.762H4.025a4.025,4.025,0,1,0,0,8.049H32.978a91.994,91.994,0,0,0,87.762,87.758V235.3a4.025,4.025,0,0,0,8.049,0V211.448a91.994,91.994,0,0,0,87.762-87.758H245.5a4.025,4.025,0,1,0,0-8.049M128.789,203.3v-32.62a4.025,4.025,0,0,0-8.049,0V203.3A83.809,83.809,0,0,1,41.132,123.69H68.649a4.025,4.025,0,1,0,0-8.049H41.132A83.809,83.809,0,0,1,120.74,36.029V68.645a4.025,4.025,0,0,0,8.049,0V36.029A83.809,83.809,0,0,1,208.4,115.641H180.881a4.025,4.025,0,0,0,0,8.049H208.4A83.808,83.808,0,0,1,128.789,203.3" transform="translate(0 0.001)" fill="#ff8182"/><path d="M54.692,21.9A31.527,31.527,0,1,0,86.217,53.424,31.525,31.525,0,0,0,54.692,21.9" transform="translate(70.072 66.238)" fill="#ff8182"/></g></g></g></svg>